<?xml version="1.0" encoding="iso-8859-1"?>
<!-- Generator: Adobe Illustrator 19.0.0, SVG Export Plug-In . SVG Version: 6.00 Build 0)  -->
<svg version="1.1" id="Layer_1" xmlns="http://www.w3.org/2000/svg" xmlns:xlink="http://www.w3.org/1999/xlink" x="0px" y="0px"
	 viewBox="0 0 512.001 512.001" style="enable-background:new 0 0 512.001 512.001;" xml:space="preserve">
<polygon style="fill:#F64B4A;" points="372.5,378.88 334.91,371.267 211.593,346.315 161.068,336.076 85.245,320.73 78.837,319.429 
	40.674,311.696 41.307,167.054 334.839,107.77 372.428,100.181 "/>
<polygon style="fill:#65B4BB;" points="451.641,409.763 451.569,409.776 372.512,422.114 372.5,378.88 372.488,334.393 
	372.428,100.181 372.416,56.959 451.557,69.346 451.569,187.054 451.605,292.054 "/>
<polygon style="fill:#57A3A7;" points="451.569,409.776 372.512,422.114 372.5,349.047 451.557,346.781 "/>
<polygon style="fill:#E84242;" points="372.5,378.88 334.91,371.267 334.839,107.77 372.428,100.181 "/>
<polygon style="fill:#65B4BB;" points="173.884,338.677 161.044,382.317 139.6,455.253 64.91,455.253 72.309,364.358 76.02,318.856 
	"/>
<polyline style="fill:#82DCC7;" points="41.167,186.247 9.965,186.247 9.965,292.821 40.796,292.821 "/>
<polygon style="fill:#57A3A7;" points="173.884,338.677 161.044,382.317 136.008,377.245 72.309,364.358 76.02,318.856 "/>
<polygon style="fill:#E84242;" points="40.879,265.5 371.13,308.477 372.504,378.884 40.679,311.692 "/>
<path style="fill:#FED159;" d="M451.575,187.052l0.011,0.011c13.439,0.004,26.87,5.128,37.124,15.381
	c20.507,20.507,20.517,53.743,0.019,74.24c-10.248,10.248-23.677,15.365-37.116,15.362l-0.011,0.011"/>
<path d="M110.592,161.702c0.587,0,1.184-0.058,1.782-0.179l223.222-45.08c4.845-0.979,7.98-5.699,7.001-10.544
	c-0.979-4.845-5.693-7.979-10.544-7.001l-223.223,45.08c-4.845,0.979-7.98,5.699-7.001,10.544
	C102.686,158.77,106.419,161.702,110.592,161.702z"/>
<path d="M494.023,196.011c-9.47-9.47-21.489-15.467-34.51-17.356l-0.024-109.415c0-4.407-3.21-8.159-7.566-8.84l-79.135-12.39
	c-2.585-0.406-5.217,0.341-7.204,2.042c-1.988,1.7-3.131,4.186-3.131,6.802l0.026,101.172c0.001,4.943,4.007,8.947,8.95,8.947
	c0,0,0.001,0,0.002,0c4.943-0.001,8.949-4.01,8.947-8.952l-0.024-90.709L441.59,76.9l0.085,325.098l-61.229,9.556l-0.056-217.735
	c-0.001-4.943-4.007-8.947-8.95-8.947c0,0-0.001,0-0.002,0c-4.943,0.001-8.949,4.01-8.947,8.952l0.045,174.013L48.646,304.275
	l0.563-129.995l31.514-6.364c4.845-0.979,7.98-5.699,7.001-10.544c-0.977-4.845-5.696-7.979-10.544-7.001l-38.66,7.808
	c-4.161,0.84-7.16,4.489-7.178,8.734l-0.044,10.28H8.95c-4.943,0-8.95,4.007-8.95,8.95v106.574c0,4.943,4.007,8.95,8.95,8.95h21.807
	l-0.043,9.883c-0.019,4.273,2.986,7.963,7.174,8.81l27.553,5.579L54.975,454.422c-0.203,2.492,0.646,4.955,2.34,6.792
	c1.695,1.839,4.08,2.884,6.58,2.884h74.69c3.97,0,7.465-2.616,8.586-6.425l26.699-90.784c1.394-4.742-1.319-9.717-6.061-11.112
	c-4.742-1.391-9.717,1.319-11.112,6.061l-24.81,84.359H73.604l9.504-116.683l279.433,56.582l0.01,35.91
	c0,2.615,1.144,5.097,3.131,6.797c1.632,1.397,3.7,2.15,5.819,2.15c0.458,0,0.92-0.036,1.379-0.107l79.13-12.35
	c4.358-0.68,7.572-4.434,7.569-8.846l-0.038-109.408c13.02-1.884,25.037-7.874,34.502-17.339
	C517.994,258.955,517.986,219.973,494.023,196.011z M17.9,283.766v-88.674h13.319l-0.384,88.674L17.9,283.766L17.9,283.766z
	 M459.535,282.075l-0.018-85.242c8.221,1.709,15.776,5.761,21.85,11.835c16.983,16.983,16.993,44.61,0.02,61.584
	C475.313,276.324,467.758,280.372,459.535,282.075z"/>
<g>
</g>
<g>
</g>
<g>
</g>
<g>
</g>
<g>
</g>
<g>
</g>
<g>
</g>
<g>
</g>
<g>
</g>
<g>
</g>
<g>
</g>
<g>
</g>
<g>
</g>
<g>
</g>
<g>
</g>
</svg>
